<svg xmlns="http://www.w3.org/2000/svg" width="20" height="20" viewBox="0 0 20 20" fill="none">
<rect width="20" height="20" />
<path fill-rule="evenodd" clip-rule="evenodd" d="M5 5V8H8V10H3V5H5Z" fill="#ffffff"/>
<path fill-rule="evenodd" clip-rule="evenodd" d="M4.88708 9.90084C4.34753 9.78292 4.00573 9.24994 4.12365 8.71039C4.83589 5.45145 8.05516 3.38695 11.3141 4.09918C14.573 4.81142 16.6375 8.0307 15.9253 11.2896C15.2131 14.5486 11.9938 16.6131 8.73486 15.9008L7.75792 15.6873L8.18494 13.7335L9.16188 13.947C11.3417 14.4234 13.495 13.0425 13.9714 10.8626C14.4478 8.68278 13.0669 6.52947 10.8871 6.05307C8.70724 5.57666 6.55394 6.95757 6.07753 9.13741C5.95962 9.67696 5.42663 10.0188 4.88708 9.90084Z" fill="#ffffff"/>
</svg>